<svg xmlns="http://www.w3.org/2000/svg" width="231" height="157" viewBox="5.4 7.3 23.1 15.7" role="img" aria-label="Downlink logo"><g transform="rotate(32 16.92 15.01) translate(3.42 7.51)" fill="#1f9d8f"><rect x="1.080" y="7.080" width="0.84" height="0.84" rx="0.13" ry="0.13"></rect><rect x="25.080" y="7.080" width="0.84" height="0.84" rx="0.13" ry="0.13"></rect><rect x="2.080" y="8.080" width="0.84" height="0.84" rx="0.13" ry="0.13"></rect><rect x="24.080" y="8.080" width="0.84" height="0.84" rx="0.13" ry="0.13"></rect><rect x="3.080" y="8.080" width="0.84" height="0.84" rx="0.13" ry="0.13"></rect><rect x="23.080" y="8.080" width="0.84" height="0.84" rx="0.13" ry="0.13"></rect><rect x="4.080" y="9.080" width="0.84" height="0.84" rx="0.13" ry="0.13"></rect><rect x="22.080" y="9.080" width="0.84" height="0.84" rx="0.13" ry="0.13"></rect><rect x="5.080" y="9.080" width="0.84" height="0.84" rx="0.13" ry="0.13"></rect><rect x="21.080" y="9.080" width="0.84" height="0.84" rx="0.13" ry="0.13"></rect><rect x="6.080" y="10.080" width="0.84" height="0.84" rx="0.13" ry="0.13"></rect><rect x="20.080" y="10.080" width="0.84" height="0.84" rx="0.13" ry="0.13"></rect><rect x="7.080" y="10.080" width="0.84" height="0.84" rx="0.13" ry="0.13"></rect><rect x="19.080" y="10.080" width="0.84" height="0.84" rx="0.13" ry="0.13"></rect><rect x="8.080" y="11.080" width="0.84" height="0.84" rx="0.13" ry="0.13"></rect><rect x="18.080" y="11.080" width="0.84" height="0.84" rx="0.13" ry="0.13"></rect><rect x="9.080" y="11.080" width="0.84" height="0.84" rx="0.13" ry="0.13"></rect><rect x="17.080" y="11.080" width="0.84" height="0.84" rx="0.13" ry="0.13"></rect><rect x="10.080" y="12.080" width="0.84" height="0.84" rx="0.13" ry="0.13"></rect><rect x="16.080" y="12.080" width="0.84" height="0.84" rx="0.13" ry="0.13"></rect><rect x="11.080" y="12.080" width="0.84" height="0.84" rx="0.13" ry="0.13"></rect><rect x="15.080" y="12.080" width="0.84" height="0.84" rx="0.13" ry="0.13"></rect><rect x="12.080" y="13.080" width="0.84" height="0.84" rx="0.13" ry="0.13"></rect><rect x="14.080" y="13.080" width="0.84" height="0.84" rx="0.13" ry="0.13"></rect><rect x="13.080" y="13.080" width="0.84" height="0.84" rx="0.13" ry="0.13"></rect><rect x="5.080" y="7.080" width="0.84" height="0.84" rx="0.13" ry="0.13"></rect><rect x="21.080" y="7.080" width="0.84" height="0.84" rx="0.13" ry="0.13"></rect><rect x="6.080" y="8.080" width="0.84" height="0.84" rx="0.13" ry="0.13"></rect><rect x="20.080" y="8.080" width="0.84" height="0.84" rx="0.13" ry="0.13"></rect><rect x="7.080" y="8.080" width="0.84" height="0.84" rx="0.13" ry="0.13"></rect><rect x="19.080" y="8.080" width="0.84" height="0.84" rx="0.13" ry="0.13"></rect><rect x="8.080" y="9.080" width="0.84" height="0.84" rx="0.13" ry="0.13"></rect><rect x="18.080" y="9.080" width="0.84" height="0.84" rx="0.13" ry="0.13"></rect><rect x="9.080" y="9.080" width="0.84" height="0.84" rx="0.13" ry="0.13"></rect><rect x="17.080" y="9.080" width="0.84" height="0.84" rx="0.13" ry="0.13"></rect><rect x="10.080" y="10.080" width="0.84" height="0.84" rx="0.13" ry="0.13"></rect><rect x="16.080" y="10.080" width="0.84" height="0.84" rx="0.13" ry="0.13"></rect><rect x="11.080" y="10.080" width="0.84" height="0.84" rx="0.13" ry="0.13"></rect><rect x="15.080" y="10.080" width="0.84" height="0.84" rx="0.13" ry="0.13"></rect><rect x="12.080" y="11.080" width="0.84" height="0.84" rx="0.13" ry="0.13"></rect><rect x="14.080" y="11.080" width="0.84" height="0.84" rx="0.13" ry="0.13"></rect><rect x="13.080" y="11.080" width="0.84" height="0.84" rx="0.13" ry="0.13"></rect><rect x="9.080" y="7.080" width="0.84" height="0.84" rx="0.13" ry="0.13"></rect><rect x="17.080" y="7.080" width="0.84" height="0.84" rx="0.13" ry="0.13"></rect><rect x="10.080" y="8.080" width="0.84" height="0.84" rx="0.13" ry="0.13"></rect><rect x="16.080" y="8.080" width="0.84" height="0.84" rx="0.13" ry="0.13"></rect><rect x="11.080" y="8.080" width="0.84" height="0.84" rx="0.13" ry="0.13"></rect><rect x="15.080" y="8.080" width="0.84" height="0.84" rx="0.13" ry="0.13"></rect><rect x="12.080" y="9.080" width="0.84" height="0.84" rx="0.13" ry="0.13"></rect><rect x="14.080" y="9.080" width="0.84" height="0.84" rx="0.13" ry="0.13"></rect><rect x="13.080" y="9.080" width="0.84" height="0.84" rx="0.13" ry="0.13"></rect><rect x="12.080" y="2.080" width="0.84" height="0.84" rx="0.13" ry="0.13"></rect><rect x="13.080" y="1.080" width="0.84" height="0.84" rx="0.13" ry="0.13"></rect><rect x="13.080" y="2.080" width="0.84" height="0.84" rx="0.13" ry="0.13"></rect><rect x="13.080" y="3.080" width="0.84" height="0.84" rx="0.13" ry="0.13"></rect><rect x="14.080" y="2.080" width="0.84" height="0.84" rx="0.13" ry="0.13"></rect><rect x="13.080" y="5.080" width="0.84" height="0.84" rx="0.13" ry="0.13"></rect></g></svg>
