<svg xmlns="http://www.w3.org/2000/svg" viewBox="0 0 33.85 30.03">
  <defs>
    <linearGradient id="g" gradientUnits="userSpaceOnUse" x1="0" y1="0" x2="0" y2="15">
      <stop offset="0" stop-color="#E6A94B"></stop>
      <stop offset="0.5" stop-color="#C9582F"></stop>
      <stop offset="1" stop-color="#8E2433"></stop>
    </linearGradient>
    <linearGradient id="g-ink" gradientUnits="userSpaceOnUse" x1="0" y1="0" x2="0" y2="15">
      <stop offset="0" stop-color="#5A5650"></stop>
      <stop offset="0.5" stop-color="#2C2A26"></stop>
      <stop offset="1" stop-color="#121110"></stop>
    </linearGradient>
    <mask id="m">
      <rect x="0" y="0" width="27" height="15" fill="#000"></rect>
      <rect x="1.080" y="7.080" width="0.84" height="0.84" rx="0.13" ry="0.13"></rect>
    <rect x="25.080" y="7.080" width="0.84" height="0.84" rx="0.13" ry="0.13"></rect>
    <rect x="2.080" y="8.080" width="0.84" height="0.84" rx="0.13" ry="0.13"></rect>
    <rect x="24.080" y="8.080" width="0.84" height="0.84" rx="0.13" ry="0.13"></rect>
    <rect x="3.080" y="8.080" width="0.84" height="0.84" rx="0.13" ry="0.13"></rect>
    <rect x="23.080" y="8.080" width="0.84" height="0.84" rx="0.13" ry="0.13"></rect>
    <rect x="4.080" y="9.080" width="0.84" height="0.84" rx="0.13" ry="0.13"></rect>
    <rect x="22.080" y="9.080" width="0.84" height="0.84" rx="0.13" ry="0.13"></rect>
    <rect x="5.080" y="9.080" width="0.84" height="0.84" rx="0.13" ry="0.13"></rect>
    <rect x="21.080" y="9.080" width="0.84" height="0.84" rx="0.13" ry="0.13"></rect>
    <rect x="6.080" y="10.080" width="0.84" height="0.84" rx="0.13" ry="0.13"></rect>
    <rect x="20.080" y="10.080" width="0.84" height="0.84" rx="0.13" ry="0.13"></rect>
    <rect x="7.080" y="10.080" width="0.84" height="0.84" rx="0.13" ry="0.13"></rect>
    <rect x="19.080" y="10.080" width="0.84" height="0.84" rx="0.13" ry="0.13"></rect>
    <rect x="8.080" y="11.080" width="0.84" height="0.84" rx="0.13" ry="0.13"></rect>
    <rect x="18.080" y="11.080" width="0.84" height="0.84" rx="0.13" ry="0.13"></rect>
    <rect x="9.080" y="11.080" width="0.84" height="0.84" rx="0.13" ry="0.13"></rect>
    <rect x="17.080" y="11.080" width="0.84" height="0.84" rx="0.13" ry="0.13"></rect>
    <rect x="10.080" y="12.080" width="0.84" height="0.84" rx="0.13" ry="0.13"></rect>
    <rect x="16.080" y="12.080" width="0.84" height="0.84" rx="0.13" ry="0.13"></rect>
    <rect x="11.080" y="12.080" width="0.84" height="0.84" rx="0.13" ry="0.13"></rect>
    <rect x="15.080" y="12.080" width="0.84" height="0.84" rx="0.13" ry="0.13"></rect>
    <rect x="12.080" y="13.080" width="0.84" height="0.84" rx="0.13" ry="0.13"></rect>
    <rect x="14.080" y="13.080" width="0.84" height="0.84" rx="0.13" ry="0.13"></rect>
    <rect x="13.080" y="13.080" width="0.84" height="0.84" rx="0.13" ry="0.13"></rect>
    <rect x="5.080" y="7.080" width="0.84" height="0.84" rx="0.13" ry="0.13"></rect>
    <rect x="21.080" y="7.080" width="0.84" height="0.84" rx="0.13" ry="0.13"></rect>
    <rect x="6.080" y="8.080" width="0.84" height="0.84" rx="0.13" ry="0.13"></rect>
    <rect x="20.080" y="8.080" width="0.84" height="0.84" rx="0.13" ry="0.13"></rect>
    <rect x="7.080" y="8.080" width="0.84" height="0.84" rx="0.13" ry="0.13"></rect>
    <rect x="19.080" y="8.080" width="0.84" height="0.84" rx="0.13" ry="0.13"></rect>
    <rect x="8.080" y="9.080" width="0.84" height="0.84" rx="0.13" ry="0.13"></rect>
    <rect x="18.080" y="9.080" width="0.84" height="0.84" rx="0.13" ry="0.13"></rect>
    <rect x="9.080" y="9.080" width="0.84" height="0.84" rx="0.13" ry="0.13"></rect>
    <rect x="17.080" y="9.080" width="0.84" height="0.84" rx="0.13" ry="0.13"></rect>
    <rect x="10.080" y="10.080" width="0.84" height="0.84" rx="0.13" ry="0.13"></rect>
    <rect x="16.080" y="10.080" width="0.84" height="0.84" rx="0.13" ry="0.13"></rect>
    <rect x="11.080" y="10.080" width="0.84" height="0.84" rx="0.13" ry="0.13"></rect>
    <rect x="15.080" y="10.080" width="0.84" height="0.84" rx="0.13" ry="0.13"></rect>
    <rect x="12.080" y="11.080" width="0.84" height="0.84" rx="0.13" ry="0.13"></rect>
    <rect x="14.080" y="11.080" width="0.84" height="0.84" rx="0.13" ry="0.13"></rect>
    <rect x="13.080" y="11.080" width="0.84" height="0.84" rx="0.13" ry="0.13"></rect>
    <rect x="9.080" y="7.080" width="0.84" height="0.84" rx="0.13" ry="0.13"></rect>
    <rect x="17.080" y="7.080" width="0.84" height="0.84" rx="0.13" ry="0.13"></rect>
    <rect x="10.080" y="8.080" width="0.84" height="0.84" rx="0.13" ry="0.13"></rect>
    <rect x="16.080" y="8.080" width="0.84" height="0.84" rx="0.13" ry="0.13"></rect>
    <rect x="11.080" y="8.080" width="0.84" height="0.84" rx="0.13" ry="0.13"></rect>
    <rect x="15.080" y="8.080" width="0.84" height="0.84" rx="0.13" ry="0.13"></rect>
    <rect x="12.080" y="9.080" width="0.84" height="0.84" rx="0.13" ry="0.13"></rect>
    <rect x="14.080" y="9.080" width="0.84" height="0.84" rx="0.13" ry="0.13"></rect>
    <rect x="13.080" y="9.080" width="0.84" height="0.84" rx="0.13" ry="0.13"></rect>
    <rect x="12.080" y="2.080" width="0.84" height="0.84" rx="0.13" ry="0.13"></rect>
    <rect x="13.080" y="1.080" width="0.84" height="0.84" rx="0.13" ry="0.13"></rect>
    <rect x="13.080" y="2.080" width="0.84" height="0.84" rx="0.13" ry="0.13"></rect>
    <rect x="13.080" y="3.080" width="0.84" height="0.84" rx="0.13" ry="0.13"></rect>
    <rect x="14.080" y="2.080" width="0.84" height="0.84" rx="0.13" ry="0.13"></rect>
    <rect x="13.080" y="5.080" width="0.84" height="0.84" rx="0.13" ry="0.13"></rect>
    </mask>
  </defs>
  
  <g transform="rotate(32 16.92 15.01) translate(3.42 7.51)">
    <rect x="0" y="0" width="27" height="15" fill="url(#g)" mask="url(#m)"></rect>
  </g>
</svg>